<svg width="100" height="20" viewBox="0 0 100 20" fill="none" xmlns="http://www.w3.org/2000/svg">
<g clip-path="url(#clip0)">
<path d="M14.6097 5.83736C14.7471 5.49392 14.9394 5.23978 15.1867 5.07494C15.4477 4.89635 15.7293 4.80706 16.0315 4.80706C16.4848 4.80706 16.8901 4.96504 17.2473 5.281C17.6044 5.58322 17.783 5.95413 17.783 6.39373C17.783 6.59979 17.7281 6.82645 17.6182 7.07372L14.28 14.224C14.1289 14.5675 13.8953 14.8354 13.5794 15.0277C13.2771 15.2063 12.9406 15.2955 12.5697 15.2955C12.1988 15.2955 11.8622 15.2063 11.56 15.0277C11.2578 14.8354 11.0311 14.5675 10.88 14.224L8.92242 9.87615L7.08848 14.224C6.95109 14.5675 6.72442 14.8354 6.40848 15.0277C6.10624 15.2063 5.76969 15.2955 5.39878 15.2955C5.02787 15.2955 4.68444 15.2063 4.36848 15.0277C4.06625 14.8354 3.83272 14.5675 3.66787 14.224L0.350297 7.07372C0.254135 6.86766 0.206055 6.64785 0.206055 6.41433C0.206055 5.961 0.391509 5.58322 0.762418 5.281C1.14707 4.96504 1.57292 4.80706 2.03999 4.80706C2.36969 4.80706 2.66504 4.89635 2.92605 5.07494C3.2008 5.23978 3.40686 5.5008 3.54424 5.85797L5.50181 10.618L7.5006 5.87857C7.63799 5.53514 7.8509 5.27413 8.13939 5.09554C8.42787 4.91695 8.73696 4.82766 9.06666 4.82766C9.39636 4.82766 9.70545 4.91695 9.99393 5.09554C10.2824 5.27413 10.4953 5.53514 10.6327 5.87857L12.6933 10.6386L14.6097 5.83736ZM26.6504 11.8955C26.9664 11.8955 27.2205 12.0192 27.4128 12.2665C27.6189 12.5137 27.7219 12.8366 27.7219 13.2349C27.7219 13.7845 27.4541 14.2034 26.9183 14.4919C26.4512 14.7254 25.8948 14.9246 25.2492 15.0895C24.6173 15.2406 24.0334 15.3161 23.4977 15.3161C22.3712 15.3161 21.389 15.1032 20.551 14.6774C19.713 14.2515 19.0674 13.6402 18.6141 12.8434C18.1607 12.0466 17.9341 11.1125 17.9341 10.041C17.9341 9.02445 18.147 8.11779 18.5728 7.321C19.0124 6.51051 19.6168 5.88544 20.3862 5.44585C21.1692 4.99251 22.0484 4.76585 23.0238 4.76585C23.9716 4.76585 24.8027 4.97191 25.5171 5.38403C26.2314 5.79615 26.7809 6.37997 27.1656 7.13554C27.5639 7.89112 27.7631 8.77718 27.7631 9.79373C27.7631 10.1097 27.6876 10.3569 27.5365 10.5355C27.3991 10.7004 27.193 10.7828 26.9183 10.7828H21.4783C21.5744 11.4422 21.7874 11.9162 22.1171 12.2046C22.4468 12.4931 22.9344 12.6374 23.5801 12.6374C23.9235 12.6374 24.2395 12.603 24.528 12.5343C24.8165 12.4519 25.1393 12.342 25.4965 12.2046C25.7025 12.1222 25.9017 12.0535 26.0941 11.9986C26.3001 11.9299 26.4856 11.8955 26.6504 11.8955ZM23.1268 7.23857C22.6459 7.23857 22.2613 7.39657 21.9728 7.71251C21.6844 8.01476 21.5126 8.46118 21.4577 9.05191H24.6928C24.6104 7.843 24.0884 7.23857 23.1268 7.23857ZM39.0173 7.60948C39.869 7.87051 40.5215 8.31009 40.9748 8.92827C41.4282 9.5327 41.6548 10.2814 41.6548 11.1743C41.6548 11.9711 41.4419 12.6717 41.0161 13.2762C40.6039 13.8669 40.0064 14.3271 39.2233 14.6568C38.454 14.9865 37.5473 15.1513 36.5033 15.1513H31.0221C30.4588 15.1513 30.0261 15.0002 29.7239 14.698C29.4217 14.3957 29.2706 13.963 29.2706 13.3998V2.37554C29.2706 1.81231 29.4217 1.37958 29.7239 1.07736C30.0261 0.775136 30.4588 0.624027 31.0221 0.624027H36.2973C37.8221 0.624027 39.031 0.967463 39.9239 1.65433C40.8306 2.32746 41.2839 3.241 41.2839 4.39494C41.2839 5.13675 41.0847 5.79615 40.6864 6.37312C40.2879 6.93633 39.7316 7.34845 39.0173 7.60948ZM32.9591 6.33191H35.6585C36.3728 6.33191 36.8948 6.22203 37.2245 6.00221C37.5542 5.78241 37.7191 5.43211 37.7191 4.9513C37.7191 4.44302 37.5542 4.07211 37.2245 3.83857C36.8948 3.60504 36.3728 3.48827 35.6585 3.48827H32.9591V6.33191ZM36.0294 12.2871C36.7849 12.2871 37.3207 12.1703 37.6367 11.9368C37.9664 11.6895 38.1312 11.2911 38.1312 10.7416C38.1312 10.1921 37.9664 9.80057 37.6367 9.56706C37.3207 9.31979 36.7849 9.19615 36.0294 9.19615H32.9591V12.2871H36.0294ZM52.4176 11.8955C52.7336 11.8955 52.9878 12.0192 53.1801 12.2665C53.3861 12.5137 53.4892 12.8366 53.4892 13.2349C53.4892 13.7845 53.2213 14.2034 52.6855 14.4919C52.2184 14.7254 51.6621 14.9246 51.0164 15.0895C50.3845 15.2406 49.8007 15.3161 49.2649 15.3161C48.1384 15.3161 47.1562 15.1032 46.3182 14.6774C45.4802 14.2515 44.8346 13.6402 44.3813 12.8434C43.9279 12.0466 43.7013 11.1125 43.7013 10.041C43.7013 9.02445 43.9142 8.11779 44.3401 7.321C44.7796 6.51051 45.3841 5.88544 46.1534 5.44585C46.9364 4.99251 47.8156 4.76585 48.791 4.76585C49.7388 4.76585 50.5699 4.97191 51.2843 5.38403C51.9987 5.79615 52.5481 6.37997 52.9328 7.13554C53.3312 7.89112 53.5304 8.77718 53.5304 9.79373C53.5304 10.1097 53.4548 10.3569 53.3037 10.5355C53.1663 10.7004 52.9602 10.7828 52.6855 10.7828H47.2455C47.3417 11.4422 47.5546 11.9162 47.8843 12.2046C48.214 12.4931 48.7017 12.6374 49.3473 12.6374C49.6908 12.6374 50.0067 12.603 50.2952 12.5343C50.5837 12.4519 50.9065 12.342 51.2637 12.2046C51.4698 12.1222 51.669 12.0535 51.8613 11.9986C52.0673 11.9299 52.2528 11.8955 52.4176 11.8955ZM48.894 7.23857C48.4132 7.23857 48.0285 7.39657 47.7401 7.71251C47.4516 8.01476 47.2799 8.46118 47.2249 9.05191H50.4601C50.3776 7.843 49.8556 7.23857 48.894 7.23857ZM57.8608 15.2749C57.3388 15.2749 56.8992 15.1375 56.5421 14.8628C56.1986 14.5743 56.0269 14.1485 56.0269 13.5852V2.2313C56.0269 1.66807 56.1986 1.24221 56.5421 0.953724C56.8992 0.665239 57.3388 0.520996 57.8608 0.520996C58.3828 0.520996 58.8156 0.665239 59.159 0.953724C59.5162 1.24221 59.6948 1.66807 59.6948 2.2313V13.5852C59.6948 14.1485 59.5162 14.5743 59.159 14.8628C58.8156 15.1375 58.3828 15.2749 57.8608 15.2749ZM67.757 15.3161C66.6442 15.3161 65.6618 15.1032 64.8103 14.6774C63.9721 14.2378 63.32 13.6196 62.8527 12.8228C62.3994 12.026 62.1727 11.0919 62.1727 10.0204C62.1727 8.94888 62.3994 8.0216 62.8527 7.23857C63.32 6.44179 63.9721 5.83049 64.8103 5.40463C65.6485 4.97877 66.6303 4.76585 67.757 4.76585C68.8836 4.76585 69.8655 4.97877 70.7036 5.40463C71.5418 5.83049 72.1873 6.44179 72.6406 7.23857C73.1079 8.0216 73.3412 8.94888 73.3412 10.0204C73.3412 11.0919 73.1079 12.026 72.6406 12.8228C72.1873 13.6196 71.5418 14.2378 70.7036 14.6774C69.8655 15.1032 68.8836 15.3161 67.757 15.3161ZM67.757 12.5755C69.0618 12.5755 69.7145 11.7238 69.7145 10.0204C69.7145 8.31694 69.0618 7.46524 67.757 7.46524C66.4521 7.46524 65.7994 8.31694 65.7994 10.0204C65.7994 11.7238 66.4521 12.5755 67.757 12.5755ZM82.6473 4.76585C83.8558 4.76585 84.7558 5.12989 85.3467 5.85797C85.937 6.57233 86.2327 7.66445 86.2327 9.13433V13.5852C86.2327 14.1072 86.0679 14.5194 85.7382 14.8216C85.4085 15.1238 84.9618 15.2749 84.3988 15.2749C83.8351 15.2749 83.3891 15.1238 83.0594 14.8216C82.7297 14.5194 82.5648 14.1072 82.5648 13.5852V9.29918C82.5648 8.69476 82.4545 8.25512 82.2352 7.98039C82.0291 7.70566 81.7127 7.56827 81.2873 7.56827C80.7376 7.56827 80.2982 7.74688 79.9685 8.10403C79.6521 8.44748 79.4945 8.91451 79.4945 9.50524V13.5852C79.4945 14.1072 79.3297 14.5194 79 14.8216C78.6703 15.1238 78.2236 15.2749 77.6606 15.2749C77.097 15.2749 76.6509 15.1238 76.3212 14.8216C75.9915 14.5194 75.8267 14.1072 75.8267 13.5852V6.45554C75.8267 5.97474 75.9982 5.58322 76.3418 5.281C76.6848 4.96504 77.1315 4.80706 77.6812 4.80706C78.203 4.80706 78.6152 4.9513 78.9176 5.23979C79.2333 5.52827 79.3915 5.90605 79.3915 6.37312C79.7485 5.8511 80.2085 5.45271 80.7721 5.17797C81.3352 4.90322 81.96 4.76585 82.6473 4.76585ZM98.1321 4.80706C98.6812 4.80706 99.1212 4.96504 99.4509 5.281C99.7806 5.58322 99.9455 5.98847 99.9455 6.49676V13.9149C99.9455 15.5909 99.437 16.8616 98.4206 17.7271C97.4176 18.5925 95.9406 19.0252 93.9903 19.0252C93.2345 19.0252 92.52 18.9566 91.8473 18.8192C91.1739 18.6818 90.6036 18.4826 90.137 18.2216C89.8897 18.0842 89.6903 17.9057 89.5394 17.6858C89.4018 17.466 89.3333 17.2188 89.3333 16.944C89.3333 16.5457 89.4291 16.2228 89.6218 15.9755C89.8279 15.7283 90.0885 15.6046 90.4048 15.6046C90.6521 15.6046 91.0982 15.7077 91.7442 15.9137C92.1697 16.0511 92.5479 16.1542 92.8776 16.2228C93.2073 16.3052 93.5436 16.3465 93.8873 16.3465C94.7248 16.3465 95.3364 16.1678 95.7212 15.8107C96.1194 15.4672 96.3188 14.9178 96.3188 14.1622V13.3792C96.0164 13.8325 95.5836 14.1966 95.0206 14.4713C94.457 14.7323 93.8461 14.8628 93.1867 14.8628C92.3073 14.8628 91.5242 14.6568 90.8376 14.2446C90.1503 13.8325 89.6145 13.2487 89.2303 12.4931C88.8455 11.7238 88.6533 10.8378 88.6533 9.83494C88.6533 8.83209 88.8455 7.94603 89.2303 7.17676C89.6145 6.40748 90.1503 5.81676 90.8376 5.40463C91.5242 4.97877 92.3073 4.76585 93.1867 4.76585C93.8594 4.76585 94.4776 4.90322 95.0412 5.17797C95.6042 5.45271 96.037 5.83049 96.3394 6.3113C96.3667 5.84423 96.5382 5.48019 96.8545 5.21918C97.1842 4.94443 97.6097 4.80706 98.1321 4.80706ZM94.2994 12.1222C94.9448 12.1222 95.4461 11.923 95.8036 11.5246C96.1606 11.1263 96.3394 10.563 96.3394 9.83494C96.3394 9.10688 96.1606 8.53676 95.8036 8.12463C95.4461 7.71251 94.9448 7.50645 94.2994 7.50645C93.6673 7.50645 93.1727 7.71251 92.8158 8.12463C92.4582 8.523 92.28 9.09312 92.28 9.83494C92.28 10.5493 92.4582 11.1125 92.8158 11.5246C93.1867 11.923 93.6812 12.1222 94.2994 12.1222Z" fill="url(#paint0_linear)"/>
</g>
<defs>
<linearGradient id="paint0_linear" x1="39.4974" y1="0.242208" x2="129.188" y2="17.1181" gradientUnits="userSpaceOnUse">
<stop stop-color="#FBD7FF"/>
<stop offset="1" stop-color="#7F5AF0"/>
</linearGradient>
<clipPath id="clip0">
<rect width="100" height="19.3939" fill="white"/>
</clipPath>
</defs>
</svg>
