<svg width="150" height="30" viewBox="0 0 150 30" fill="none" xmlns="http://www.w3.org/2000/svg">
<path d="M21.9144 8.75629C22.1205 8.24113 22.409 7.85992 22.7799 7.61265C23.1714 7.34477 23.5938 7.21083 24.0471 7.21083C24.7271 7.21083 25.3351 7.4478 25.8708 7.92174C26.4065 8.37508 26.6744 8.93144 26.6744 9.59083C26.6744 9.89992 26.592 10.2399 26.4271 10.6108L21.4199 21.3363C21.1932 21.8515 20.8429 22.2533 20.369 22.5417C19.9156 22.8097 19.4108 22.9436 18.8544 22.9436C18.2981 22.9436 17.7932 22.8097 17.3399 22.5417C16.8865 22.2533 16.5465 21.8515 16.3199 21.3363L13.3835 14.8145L10.6326 21.3363C10.4265 21.8515 10.0865 22.2533 9.6126 22.5417C9.15923 22.8097 8.65441 22.9436 8.09805 22.9436C7.54169 22.9436 7.02653 22.8097 6.5526 22.5417C6.09926 22.2533 5.74896 21.8515 5.50169 21.3363L0.525324 10.6108C0.381081 10.3017 0.30896 9.97201 0.30896 9.62174C0.30896 8.94174 0.587142 8.37508 1.14351 7.92174C1.72048 7.4478 2.35926 7.21083 3.05987 7.21083C3.55441 7.21083 3.99744 7.34477 4.38896 7.61265C4.80108 7.85992 5.11017 8.25144 5.31623 8.7872L8.2526 15.9272L11.2508 8.8181C11.4569 8.30295 11.7762 7.91144 12.209 7.64356C12.6417 7.37568 13.1053 7.24174 13.5999 7.24174C14.0944 7.24174 14.5581 7.37568 14.9908 7.64356C15.4235 7.91144 15.7429 8.30295 15.949 8.8181L19.0399 15.9581L21.9144 8.75629ZM39.9755 17.8436C40.4494 17.8436 40.8306 18.029 41.1191 18.3999C41.4282 18.7708 41.5828 19.2551 41.5828 19.8527C41.5828 20.6769 41.181 21.3054 40.3773 21.7381C39.6767 22.0884 38.8421 22.3872 37.8737 22.6345C36.9258 22.8611 36.05 22.9745 35.2464 22.9745C33.5567 22.9745 32.0833 22.6551 30.8264 22.0163C29.5694 21.3775 28.601 20.4606 27.921 19.2654C27.241 18.0702 26.901 16.669 26.901 15.0617C26.901 13.5369 27.2203 12.1769 27.8591 10.9817C28.5185 9.76601 29.4251 8.8284 30.5791 8.16901C31.7537 7.48901 33.0724 7.14901 34.5355 7.14901C35.9573 7.14901 37.204 7.4581 38.2755 8.07629C39.347 8.69447 40.1712 9.5702 40.7482 10.7036C41.3458 11.8369 41.6446 13.166 41.6446 14.6908C41.6446 15.1647 41.5312 15.5357 41.3046 15.8036C41.0985 16.0508 40.7894 16.1745 40.3773 16.1745H32.2173C32.3615 17.1636 32.681 17.8745 33.1755 18.3072C33.6701 18.7399 34.4015 18.9563 35.3701 18.9563C35.8851 18.9563 36.3591 18.9047 36.7919 18.8017C37.2246 18.6781 37.7088 18.5133 38.2446 18.3072C38.5537 18.1836 38.8524 18.0806 39.141 17.9981C39.4501 17.8951 39.7282 17.8436 39.9755 17.8436ZM34.6901 10.8581C33.9688 10.8581 33.3919 11.0951 32.9591 11.569C32.5264 12.0224 32.2688 12.692 32.1864 13.5781H37.0391C36.9155 11.7647 36.1324 10.8581 34.6901 10.8581ZM58.5258 11.4145C59.8033 11.806 60.7821 12.4654 61.4621 13.3927C62.1421 14.2993 62.4821 15.4224 62.4821 16.7617C62.4821 17.9569 62.1627 19.0078 61.524 19.9145C60.9058 20.8006 60.0094 21.4908 58.8349 21.9854C57.6809 22.4799 56.3209 22.7272 54.7549 22.7272H46.5331C45.6881 22.7272 45.0391 22.5006 44.5858 22.0472C44.1324 21.5938 43.9058 20.9447 43.9058 20.0999V3.56356C43.9058 2.71871 44.1324 2.06962 44.5858 1.61628C45.0391 1.16295 45.6881 0.936285 46.5331 0.936285H54.4458C56.7331 0.936285 58.5463 1.45144 59.8858 2.48174C61.2458 3.49144 61.9258 4.86174 61.9258 6.59265C61.9258 7.70538 61.627 8.69447 61.0294 9.55992C60.4318 10.4047 59.5972 11.0229 58.5258 11.4145ZM49.4385 9.4981H53.4876C54.5591 9.4981 55.3421 9.33329 55.8367 9.00356C56.3312 8.67386 56.5785 8.1484 56.5785 7.42719C56.5785 6.66477 56.3312 6.1084 55.8367 5.7581C55.3421 5.4078 54.5591 5.23265 53.4876 5.23265H49.4385V9.4981ZM54.044 18.4308C55.1772 18.4308 55.9809 18.2557 56.4549 17.9054C56.9494 17.5345 57.1967 16.9369 57.1967 16.1127C57.1967 15.2884 56.9494 14.7011 56.4549 14.3508C55.9809 13.9799 55.1772 13.7945 54.044 13.7945H49.4385V18.4308H54.044ZM78.6263 17.8436C79.1002 17.8436 79.4815 18.029 79.77 18.3999C80.0791 18.7708 80.2336 19.2551 80.2336 19.8527C80.2336 20.6769 79.8318 21.3054 79.0281 21.7381C78.3275 22.0884 77.493 22.3872 76.5245 22.6345C75.5766 22.8611 74.7009 22.9745 73.8972 22.9745C72.2075 22.9745 70.7342 22.6551 69.4772 22.0163C68.2202 21.3775 67.2518 20.4606 66.5718 19.2654C65.8918 18.0702 65.5518 16.669 65.5518 15.0617C65.5518 13.5369 65.8711 12.1769 66.51 10.9817C67.1693 9.76601 68.0761 8.8284 69.23 8.16901C70.4045 7.48901 71.7233 7.14901 73.1863 7.14901C74.6081 7.14901 75.8548 7.4581 76.9263 8.07629C77.9979 8.69447 78.8221 9.5702 79.3991 10.7036C79.9966 11.8369 80.2954 13.166 80.2954 14.6908C80.2954 15.1647 80.1821 15.5357 79.9554 15.8036C79.7493 16.0508 79.4402 16.1745 79.0281 16.1745H70.8681C71.0124 17.1636 71.3318 17.8745 71.8263 18.3072C72.3209 18.7399 73.0524 18.9563 74.0209 18.9563C74.5361 18.9563 75.01 18.9047 75.4427 18.8017C75.8754 18.6781 76.3597 18.5133 76.8954 18.3072C77.2045 18.1836 77.5033 18.0806 77.7918 17.9981C78.1009 17.8951 78.3791 17.8436 78.6263 17.8436ZM73.3409 10.8581C72.6197 10.8581 72.0427 11.0951 71.61 11.569C71.1772 12.0224 70.9197 12.692 70.8372 13.5781H75.69C75.5663 11.7647 74.7833 10.8581 73.3409 10.8581ZM86.7911 22.9127C86.0081 22.9127 85.3487 22.7066 84.813 22.2945C84.2978 21.8617 84.0402 21.2229 84.0402 20.3781V3.34719C84.0402 2.50235 84.2978 1.86356 84.813 1.43083C85.3487 0.998103 86.0081 0.781738 86.7911 0.781738C87.5741 0.781738 88.2232 0.998103 88.7384 1.43083C89.2741 1.86356 89.5421 2.50235 89.5421 3.34719V20.3781C89.5421 21.2229 89.2741 21.8617 88.7384 22.2945C88.2232 22.7066 87.5741 22.9127 86.7911 22.9127ZM101.635 22.9745C99.9662 22.9745 98.4926 22.6551 97.2153 22.0163C95.9581 21.3569 94.9799 20.4297 94.279 19.2345C93.599 18.0393 93.259 16.6381 93.259 15.0308C93.259 13.4236 93.599 12.0327 94.279 10.8581C94.9799 9.66292 95.9581 8.74599 97.2153 8.1072C98.4726 7.4684 99.9453 7.14901 101.635 7.14901C103.325 7.14901 104.798 7.4684 106.055 8.1072C107.313 8.74599 108.281 9.66292 108.961 10.8581C109.662 12.0327 110.012 13.4236 110.012 15.0308C110.012 16.6381 109.662 18.0393 108.961 19.2345C108.281 20.4297 107.313 21.3569 106.055 22.0163C104.798 22.6551 103.325 22.9745 101.635 22.9745ZM101.635 18.8636C103.593 18.8636 104.572 17.586 104.572 15.0308C104.572 12.4757 103.593 11.1981 101.635 11.1981C99.6781 11.1981 98.699 12.4757 98.699 15.0308C98.699 17.586 99.6781 18.8636 101.635 18.8636ZM123.971 7.14901C125.784 7.14901 127.134 7.69508 128.02 8.7872C128.905 9.85874 129.349 11.4969 129.349 13.7017V20.3781C129.349 21.1611 129.102 21.7793 128.607 22.2327C128.113 22.686 127.443 22.9127 126.598 22.9127C125.753 22.9127 125.084 22.686 124.589 22.2327C124.094 21.7793 123.847 21.1611 123.847 20.3781V13.949C123.847 13.0424 123.682 12.3829 123.353 11.9708C123.044 11.5587 122.569 11.3527 121.931 11.3527C121.106 11.3527 120.447 11.6206 119.953 12.1563C119.478 12.6715 119.242 13.372 119.242 14.2581V20.3781C119.242 21.1611 118.994 21.7793 118.5 22.2327C118.005 22.686 117.335 22.9127 116.491 22.9127C115.645 22.9127 114.976 22.686 114.482 22.2327C113.987 21.7793 113.74 21.1611 113.74 20.3781V9.68356C113.74 8.96235 113.997 8.37508 114.513 7.92174C115.027 7.4478 115.697 7.21083 116.522 7.21083C117.304 7.21083 117.923 7.42719 118.376 7.85992C118.85 8.29265 119.087 8.85931 119.087 9.55992C119.623 8.7769 120.313 8.17931 121.158 7.76719C122.003 7.35508 122.94 7.14901 123.971 7.14901ZM147.198 7.21083C148.022 7.21083 148.682 7.4478 149.176 7.92174C149.671 8.37508 149.918 8.98295 149.918 9.74538V20.8727C149.918 23.3866 149.155 25.2927 147.631 26.5908C146.126 27.889 143.911 28.5381 140.985 28.5381C139.852 28.5381 138.78 28.4351 137.771 28.229C136.761 28.0229 135.905 27.7242 135.205 27.3327C134.834 27.1266 134.535 26.8587 134.309 26.529C134.103 26.1993 134 25.8284 134 25.4163C134 24.8187 134.144 24.3345 134.433 23.9636C134.742 23.5927 135.133 23.4072 135.607 23.4072C135.978 23.4072 136.647 23.5617 137.616 23.8708C138.254 24.0769 138.822 24.2315 139.316 24.3345C139.811 24.4581 140.315 24.5199 140.831 24.5199C142.087 24.5199 143.004 24.252 143.582 23.7163C144.179 23.2011 144.478 22.3769 144.478 21.2436V20.069C144.024 20.749 143.375 21.2951 142.531 21.7072C141.685 22.0987 140.769 22.2945 139.78 22.2945C138.461 22.2945 137.286 21.9854 136.256 21.3672C135.225 20.749 134.422 19.8733 133.845 18.7399C133.268 17.586 132.98 16.2569 132.98 14.7527C132.98 13.2484 133.268 11.9193 133.845 10.7654C134.422 9.61147 135.225 8.72538 136.256 8.1072C137.286 7.4684 138.461 7.14901 139.78 7.14901C140.789 7.14901 141.716 7.35508 142.562 7.76719C143.406 8.17931 144.055 8.74599 144.509 9.46719C144.55 8.76659 144.807 8.22053 145.282 7.82901C145.776 7.41689 146.414 7.21083 147.198 7.21083ZM141.449 18.1836C142.417 18.1836 143.169 17.8847 143.705 17.2872C144.241 16.6897 144.509 15.8447 144.509 14.7527C144.509 13.6606 144.241 12.8054 143.705 12.1872C143.169 11.569 142.417 11.2599 141.449 11.2599C140.501 11.2599 139.759 11.569 139.224 12.1872C138.687 12.7847 138.42 13.6399 138.42 14.7527C138.42 15.8242 138.687 16.669 139.224 17.2872C139.78 17.8847 140.522 18.1836 141.449 18.1836Z" fill="url(#paint0_linear)"/>
<defs>
<linearGradient id="paint0_linear" x1="59.246" y1="0.363556" x2="193.782" y2="25.6774" gradientUnits="userSpaceOnUse">
<stop stop-color="#FBD7FF"/>
<stop offset="1" stop-color="#7F5AF0"/>
</linearGradient>
</defs>
</svg>
