<svg width="190" height="66" viewBox="0 0 190 66" fill="none" xmlns="http://www.w3.org/2000/svg">
<g filter="url(#filter0_d)">
<rect x="5" y="1" width="180.01" height="55.6731" rx="4.63943" fill="white"/>
<path fill-rule="evenodd" clip-rule="evenodd" d="M37.3902 21.9344C38.2405 20.8368 38.885 19.2855 38.6519 17.7019C37.2622 17.7985 35.6379 18.6876 34.6901 19.8465C33.8261 20.8966 33.116 22.4587 33.3933 23.9748C34.9125 24.0223 36.4805 23.1117 37.3902 21.9344ZM44.8991 36.8303C44.2911 38.1854 43.9986 38.7909 43.2153 39.9912C42.1228 41.6668 40.5822 43.7531 38.6714 43.7684C36.9754 43.7868 36.5381 42.657 34.2357 42.6708C31.9332 42.6831 31.4532 43.7899 29.7542 43.773C27.8449 43.7562 26.3851 41.8737 25.2926 40.1982C22.2358 35.5165 21.9143 30.0208 23.7992 27.0975C25.1402 25.0218 27.2552 23.8077 29.2422 23.8077C31.2643 23.8077 32.5366 24.9237 34.2113 24.9237C35.8356 24.9237 36.8246 23.8047 39.1636 23.8047C40.9342 23.8047 42.81 24.775 44.1449 26.449C39.7685 28.8619 40.4771 35.1486 44.8991 36.8303Z" fill="#0B0B0A"/>
<path d="M72.5429 40.2972H66.8141L65.6283 43.053H63.457L68.7849 31.2781H70.5387L75.8666 43.053H73.7287L72.5429 40.2972ZM71.8247 38.627L69.6702 33.6164L67.5156 38.627H71.8247ZM81.9659 34.6853C82.6674 34.6853 83.2909 34.8635 83.8365 35.2198C84.3933 35.5761 84.8219 36.0827 85.1226 36.7396C85.4343 37.3855 85.5902 38.1315 85.5902 38.9777C85.5902 39.8239 85.4343 40.5644 85.1226 41.1991C84.8219 41.8337 84.3988 42.3237 83.8532 42.6688C83.3076 43.014 82.6785 43.1866 81.9659 43.1866C81.3869 43.1866 80.8692 43.0641 80.4126 42.8192C79.9561 42.5742 79.6054 42.2346 79.3604 41.8003V46.0593H77.2727V34.8857H79.327V36.1217C79.572 35.6652 79.9227 35.3144 80.3792 35.0695C80.8469 34.8134 81.3758 34.6853 81.9659 34.6853ZM81.4147 41.5665C82.0717 41.5665 82.5839 41.3438 82.9513 40.8984C83.3188 40.4419 83.5025 39.8017 83.5025 38.9777C83.5025 38.1315 83.3188 37.4745 82.9513 37.0069C82.5839 36.5392 82.0717 36.3054 81.4147 36.3054C80.7467 36.3054 80.2289 36.5337 79.8615 36.9902C79.5052 37.4467 79.327 38.0981 79.327 38.9443C79.327 39.7794 79.5052 40.4252 79.8615 40.8817C80.2289 41.3382 80.7467 41.5665 81.4147 41.5665ZM92.3309 34.6853C93.0324 34.6853 93.6559 34.8635 94.2015 35.2198C94.7582 35.5761 95.1869 36.0827 95.4876 36.7396C95.7993 37.3855 95.9552 38.1315 95.9552 38.9777C95.9552 39.8239 95.7993 40.5644 95.4876 41.1991C95.1869 41.8337 94.7638 42.3237 94.2182 42.6688C93.6726 43.014 93.0435 43.1866 92.3309 43.1866C91.7519 43.1866 91.2341 43.0641 90.7776 42.8192C90.3211 42.5742 89.9704 42.2346 89.7254 41.8003V46.0593H87.6377V34.8857H89.692V36.1217C89.937 35.6652 90.2877 35.3144 90.7442 35.0695C91.2119 34.8134 91.7408 34.6853 92.3309 34.6853ZM91.7797 41.5665C92.4367 41.5665 92.9489 41.3438 93.3163 40.8984C93.6838 40.4419 93.8675 39.8017 93.8675 38.9777C93.8675 38.1315 93.6838 37.4745 93.3163 37.0069C92.9489 36.5392 92.4367 36.3054 91.7797 36.3054C91.1117 36.3054 90.5939 36.5337 90.2265 36.9902C89.8701 37.4467 89.692 38.0981 89.692 38.9443C89.692 39.7794 89.8701 40.4252 90.2265 40.8817C90.5939 41.3382 91.1117 41.5665 91.7797 41.5665ZM107.046 43.2033C106.145 43.2033 105.298 43.0808 104.508 42.8359C103.717 42.5909 103.049 42.2457 102.504 41.8003L103.222 40.2304C103.79 40.6646 104.385 40.9819 105.009 41.1824C105.644 41.3828 106.328 41.483 107.063 41.483C107.876 41.483 108.5 41.3438 108.934 41.0654C109.379 40.7759 109.602 40.3751 109.602 39.8629C109.602 39.4175 109.396 39.0779 108.984 38.8441C108.583 38.6103 107.909 38.3876 106.963 38.176C105.983 37.9645 105.187 37.7195 104.575 37.4411C103.962 37.1628 103.5 36.8065 103.188 36.3722C102.877 35.938 102.721 35.3868 102.721 34.7187C102.721 34.0284 102.91 33.4104 103.289 32.8648C103.667 32.3192 104.202 31.8961 104.892 31.5954C105.582 31.2837 106.378 31.1278 107.28 31.1278C108.104 31.1278 108.889 31.2558 109.635 31.5119C110.381 31.7569 110.994 32.0965 111.472 32.5308L110.754 34.1007C109.708 33.2656 108.55 32.8481 107.28 32.8481C106.523 32.8481 105.922 33.004 105.476 33.3157C105.042 33.6164 104.825 34.0395 104.825 34.5851C104.825 35.0416 105.02 35.3924 105.41 35.6373C105.799 35.8823 106.462 36.1105 107.397 36.3221C108.388 36.5448 109.19 36.7953 109.802 37.0737C110.426 37.3409 110.899 37.6861 111.222 38.1092C111.556 38.5323 111.723 39.0668 111.723 39.7126C111.723 40.4141 111.534 41.032 111.155 41.5665C110.788 42.0898 110.248 42.4962 109.535 42.7857C108.834 43.0641 108.004 43.2033 107.046 43.2033ZM117.917 41.6166C118.162 41.6166 118.418 41.5999 118.685 41.5665L118.585 43.1198C118.251 43.1532 117.945 43.1699 117.667 43.1699C116.52 43.1699 115.673 42.9082 115.128 42.3849C114.582 41.8504 114.309 41.0599 114.309 40.0132V36.4557H112.739V34.8857H114.309V32.4472H116.397V34.8857H118.552V36.4557H116.397V39.9798C116.397 41.071 116.904 41.6166 117.917 41.6166ZM123.966 43.1866C123.13 43.1866 122.396 43.014 121.761 42.6688C121.137 42.3237 120.653 41.8282 120.308 41.1824C119.963 40.5366 119.79 39.785 119.79 38.9276C119.79 38.0702 119.963 37.3242 120.308 36.6895C120.653 36.0437 121.137 35.5482 121.761 35.2031C122.396 34.8579 123.13 34.6853 123.966 34.6853C124.801 34.6853 125.53 34.8579 126.154 35.2031C126.788 35.5482 127.273 36.0437 127.607 36.6895C127.952 37.3242 128.124 38.0702 128.124 38.9276C128.124 39.785 127.952 40.5366 127.607 41.1824C127.273 41.8282 126.788 42.3237 126.154 42.6688C125.53 43.014 124.801 43.1866 123.966 43.1866ZM123.949 41.5665C124.628 41.5665 125.146 41.3438 125.502 40.8984C125.858 40.453 126.037 39.7961 126.037 38.9276C126.037 38.0702 125.858 37.4189 125.502 36.9735C125.146 36.517 124.634 36.2887 123.966 36.2887C123.297 36.2887 122.78 36.517 122.412 36.9735C122.056 37.4189 121.878 38.0702 121.878 38.9276C121.878 39.7961 122.056 40.453 122.412 40.8984C122.769 41.3438 123.281 41.5665 123.949 41.5665ZM135.56 36.4223L134.341 36.5392C132.96 36.684 132.27 37.3855 132.27 38.6437V43.053H130.182V34.8857H132.169V36.3221C132.593 35.3422 133.467 34.8078 134.792 34.7187L135.426 34.6686L135.56 36.4223ZM143.912 39.3451H138.35C138.417 40.1023 138.645 40.6646 139.035 41.032C139.424 41.3995 139.981 41.5832 140.705 41.5832C141.607 41.5832 142.431 41.2937 143.177 40.7147L143.778 42.1511C143.4 42.4628 142.921 42.7134 142.342 42.9027C141.774 43.0919 141.2 43.1866 140.621 43.1866C139.285 43.1866 138.227 42.808 137.448 42.0509C136.68 41.2937 136.296 40.2582 136.296 38.9443C136.296 38.1092 136.463 37.3688 136.797 36.7229C137.131 36.0771 137.598 35.5761 138.2 35.2198C138.812 34.8635 139.502 34.6853 140.271 34.6853C141.395 34.6853 142.28 35.0472 142.926 35.7709C143.583 36.4947 143.912 37.4912 143.912 38.7606V39.3451ZM140.321 36.1551C139.764 36.1551 139.313 36.3332 138.968 36.6895C138.634 37.0458 138.428 37.558 138.35 38.2261H142.125C142.102 37.5469 141.935 37.0347 141.624 36.6895C141.312 36.3332 140.878 36.1551 140.321 36.1551Z" fill="black"/>
<path d="M64.5872 12.2649H67.6659C69.1295 12.2649 70.2597 12.6632 71.0564 13.46C71.8618 14.2481 72.2645 15.3739 72.2645 16.8375C72.2645 18.3011 71.8618 19.4312 71.0564 20.228C70.2597 21.0247 69.1295 21.4231 67.6659 21.4231H64.5872V12.2649ZM67.601 20.5138C69.9739 20.5138 71.1603 19.2883 71.1603 16.8375C71.1603 14.3953 69.9739 13.1742 67.601 13.1742H65.6524V20.5138H67.601ZM76.9184 21.514C76.3209 21.514 75.7926 21.3798 75.3336 21.1113C74.8833 20.8429 74.5325 20.4618 74.2814 19.9682C74.0389 19.4659 73.9176 18.8856 73.9176 18.2275C73.9176 17.5693 74.0389 16.9934 74.2814 16.4997C74.5325 15.9974 74.8833 15.6121 75.3336 15.3436C75.7926 15.0751 76.3209 14.9409 76.9184 14.9409C77.516 14.9409 78.0443 15.0751 78.5033 15.3436C78.9623 15.6121 79.313 15.9974 79.5555 16.4997C79.8066 16.9934 79.9322 17.5693 79.9322 18.2275C79.9322 18.8856 79.8066 19.4659 79.5555 19.9682C79.313 20.4618 78.9623 20.8429 78.5033 21.1113C78.0443 21.3798 77.516 21.514 76.9184 21.514ZM76.9184 20.6437C77.542 20.6437 78.0183 20.4402 78.3474 20.0331C78.6851 19.6174 78.854 19.0155 78.854 18.2275C78.854 17.4567 78.6851 16.8635 78.3474 16.4478C78.0096 16.0234 77.5333 15.8112 76.9184 15.8112C76.3036 15.8112 75.8272 16.0234 75.4895 16.4478C75.1517 16.8635 74.9829 17.4567 74.9829 18.2275C74.9829 19.0069 75.1474 19.6044 75.4765 20.0201C75.8142 20.4358 76.2949 20.6437 76.9184 20.6437ZM91.3225 15.0968L88.9713 21.4231H87.958L86.1783 16.5257L84.3857 21.4231H83.3854L81.0342 15.0968H82.1253L83.918 20.176L85.7497 15.0968H86.659L88.4647 20.176L90.2703 15.0968H91.3225ZM96.0614 14.9409C97.5769 14.9409 98.3347 15.7766 98.3347 17.448V21.4231H97.2825V17.513C97.2825 16.9241 97.1656 16.4954 96.9318 16.2269C96.7066 15.9585 96.3429 15.8242 95.8406 15.8242C95.2603 15.8242 94.797 16.0018 94.4506 16.3568C94.1042 16.7119 93.931 17.1926 93.931 17.7988V21.4231H92.8788V15.0968H93.918V16.136C94.1258 15.7463 94.416 15.4518 94.7883 15.2527C95.1607 15.0448 95.5851 14.9409 96.0614 14.9409ZM100.522 12.2649H101.574V21.4231H100.522V12.2649ZM106.425 21.514C105.827 21.514 105.299 21.3798 104.84 21.1113C104.39 20.8429 104.039 20.4618 103.788 19.9682C103.545 19.4659 103.424 18.8856 103.424 18.2275C103.424 17.5693 103.545 16.9934 103.788 16.4997C104.039 15.9974 104.39 15.6121 104.84 15.3436C105.299 15.0751 105.827 14.9409 106.425 14.9409C107.022 14.9409 107.551 15.0751 108.01 15.3436C108.469 15.6121 108.819 15.9974 109.062 16.4997C109.313 16.9934 109.439 17.5693 109.439 18.2275C109.439 18.8856 109.313 19.4659 109.062 19.9682C108.819 20.4618 108.469 20.8429 108.01 21.1113C107.551 21.3798 107.022 21.514 106.425 21.514ZM106.425 20.6437C107.048 20.6437 107.525 20.4402 107.854 20.0331C108.192 19.6174 108.36 19.0155 108.36 18.2275C108.36 17.4567 108.192 16.8635 107.854 16.4478C107.516 16.0234 107.04 15.8112 106.425 15.8112C105.81 15.8112 105.334 16.0234 104.996 16.4478C104.658 16.8635 104.489 17.4567 104.489 18.2275C104.489 19.0069 104.654 19.6044 104.983 20.0201C105.321 20.4358 105.801 20.6437 106.425 20.6437ZM113.838 14.9409C114.644 14.9409 115.241 15.1487 115.631 15.5644C116.029 15.9715 116.229 16.595 116.229 17.435V21.4231H115.202V20.3449C115.038 20.7173 114.787 21.0074 114.449 21.2152C114.111 21.4144 113.721 21.514 113.28 21.514C112.873 21.514 112.496 21.4318 112.15 21.2672C111.812 21.1027 111.543 20.8732 111.344 20.5787C111.145 20.2843 111.045 19.9595 111.045 19.6044C111.045 19.1281 111.167 18.7601 111.409 18.5003C111.652 18.2318 112.05 18.0413 112.604 17.9287C113.159 17.8074 113.929 17.7468 114.917 17.7468H115.202V17.3181C115.202 16.7899 115.094 16.4088 114.878 16.175C114.661 15.9325 114.31 15.8112 113.825 15.8112C113.098 15.8112 112.375 16.0364 111.656 16.4867L111.305 15.7203C111.634 15.4865 112.028 15.3003 112.487 15.1617C112.955 15.0145 113.405 14.9409 113.838 14.9409ZM113.423 20.6826C113.942 20.6826 114.367 20.5094 114.696 20.163C115.033 19.808 115.202 19.3533 115.202 18.799V18.4223H114.969C114.206 18.4223 113.626 18.457 113.228 18.5262C112.829 18.5869 112.544 18.6951 112.37 18.851C112.206 18.9982 112.124 19.2191 112.124 19.5135C112.124 19.8513 112.245 20.1327 112.487 20.3579C112.738 20.5744 113.05 20.6826 113.423 20.6826ZM124.026 12.2649V21.4231H122.974V20.267C122.784 20.6653 122.502 20.9728 122.13 21.1893C121.766 21.4058 121.337 21.514 120.844 21.514C120.289 21.514 119.8 21.3755 119.376 21.0983C118.951 20.8212 118.622 20.4358 118.389 19.9422C118.155 19.4399 118.038 18.8597 118.038 18.2015C118.038 17.552 118.155 16.9804 118.389 16.4867C118.622 15.9931 118.951 15.6121 119.376 15.3436C119.8 15.0751 120.289 14.9409 120.844 14.9409C121.337 14.9409 121.766 15.0491 122.13 15.2656C122.502 15.4822 122.784 15.7896 122.974 16.188V12.2649H124.026ZM121.052 20.6437C121.666 20.6437 122.138 20.4358 122.468 20.0201C122.805 19.5958 122.974 18.9982 122.974 18.2275C122.974 17.4567 122.805 16.8635 122.468 16.4478C122.138 16.0321 121.666 15.8242 121.052 15.8242C120.437 15.8242 119.956 16.0321 119.61 16.4478C119.272 16.8635 119.103 17.448 119.103 18.2015C119.103 18.9722 119.272 19.5741 119.61 20.0071C119.956 20.4315 120.437 20.6437 121.052 20.6437ZM132.468 21.514C131.871 21.514 131.342 21.3798 130.883 21.1113C130.433 20.8429 130.082 20.4618 129.831 19.9682C129.589 19.4659 129.467 18.8856 129.467 18.2275C129.467 17.5693 129.589 16.9934 129.831 16.4997C130.082 15.9974 130.433 15.6121 130.883 15.3436C131.342 15.0751 131.871 14.9409 132.468 14.9409C133.066 14.9409 133.594 15.0751 134.053 15.3436C134.512 15.6121 134.863 15.9974 135.105 16.4997C135.356 16.9934 135.482 17.5693 135.482 18.2275C135.482 18.8856 135.356 19.4659 135.105 19.9682C134.863 20.4618 134.512 20.8429 134.053 21.1113C133.594 21.3798 133.066 21.514 132.468 21.514ZM132.468 20.6437C133.092 20.6437 133.568 20.4402 133.897 20.0331C134.235 19.6174 134.404 19.0155 134.404 18.2275C134.404 17.4567 134.235 16.8635 133.897 16.4478C133.559 16.0234 133.083 15.8112 132.468 15.8112C131.853 15.8112 131.377 16.0234 131.039 16.4478C130.701 16.8635 130.533 17.4567 130.533 18.2275C130.533 19.0069 130.697 19.6044 131.026 20.0201C131.364 20.4358 131.845 20.6437 132.468 20.6437ZM140.492 14.9409C142.008 14.9409 142.765 15.7766 142.765 17.448V21.4231H141.713V17.513C141.713 16.9241 141.596 16.4954 141.362 16.2269C141.137 15.9585 140.774 15.8242 140.271 15.8242C139.691 15.8242 139.228 16.0018 138.881 16.3568C138.535 16.7119 138.362 17.1926 138.362 17.7988V21.4231H137.309V15.0968H138.349V16.136C138.557 15.7463 138.847 15.4518 139.219 15.2527C139.591 15.0448 140.016 14.9409 140.492 14.9409ZM151.341 20.6697C151.532 20.6697 151.722 20.6567 151.913 20.6307L151.861 21.4621C151.662 21.4967 151.445 21.514 151.211 21.514C150.449 21.514 149.873 21.3148 149.484 20.9165C149.103 20.5181 148.912 19.9638 148.912 19.2537V15.9282H147.678V15.0968H148.912V13.1742H149.964V15.0968H151.757V15.9282H149.964V19.1758C149.964 20.1717 150.423 20.6697 151.341 20.6697ZM156.419 14.9409C157.934 14.9409 158.692 15.7766 158.692 17.448V21.4231H157.64V17.513C157.64 16.9241 157.523 16.4954 157.289 16.2269C157.064 15.9585 156.7 15.8242 156.198 15.8242C155.617 15.8242 155.154 16.0018 154.808 16.3568C154.461 16.7119 154.288 17.1926 154.288 17.7988V21.4231H153.236V12.2649H154.288V16.11C154.496 15.729 154.782 15.4389 155.145 15.2397C155.518 15.0405 155.942 14.9409 156.419 14.9409ZM166.179 18.4223H161.554C161.589 19.1584 161.788 19.717 162.152 20.0981C162.516 20.4705 163.031 20.6567 163.698 20.6567C164.434 20.6567 165.109 20.4055 165.724 19.9032L166.075 20.6697C165.798 20.9295 165.443 21.1373 165.01 21.2932C164.577 21.4404 164.135 21.514 163.685 21.514C162.698 21.514 161.918 21.2239 161.347 20.6437C160.784 20.0634 160.502 19.2624 160.502 18.2404C160.502 17.5909 160.628 17.0194 160.879 16.5257C161.13 16.0234 161.481 15.6337 161.931 15.3566C162.39 15.0795 162.91 14.9409 163.49 14.9409C164.33 14.9409 164.988 15.218 165.465 15.7723C165.941 16.3179 166.179 17.0713 166.179 18.0326V18.4223ZM163.503 15.7593C162.949 15.7593 162.503 15.9325 162.165 16.2789C161.836 16.6253 161.641 17.1146 161.58 17.7468H165.257C165.239 17.106 165.079 16.6166 164.776 16.2789C164.473 15.9325 164.049 15.7593 163.503 15.7593Z" fill="black"/>
</g>
<defs>
<filter id="filter0_d" x="0.360573" y="0.0721147" width="189.289" height="64.952" filterUnits="userSpaceOnUse" color-interpolation-filters="sRGB">
<feFlood flood-opacity="0" result="BackgroundImageFix"/>
<feColorMatrix in="SourceAlpha" type="matrix" values="0 0 0 0 0 0 0 0 0 0 0 0 0 0 0 0 0 0 127 0"/>
<feOffset dy="3.71154"/>
<feGaussianBlur stdDeviation="2.31971"/>
<feColorMatrix type="matrix" values="0 0 0 0 0 0 0 0 0 0 0 0 0 0 0 0 0 0 0.2 0"/>
<feBlend mode="normal" in2="BackgroundImageFix" result="effect1_dropShadow"/>
<feBlend mode="normal" in="SourceGraphic" in2="effect1_dropShadow" result="shape"/>
</filter>
</defs>
</svg>
