<svg width="593" height="603" viewBox="0 0 593 603" fill="none" xmlns="http://www.w3.org/2000/svg">
<path d="M485.113 300.991C485.113 406.878 400.619 492.701 296.409 492.701C192.199 492.701 107.706 406.878 107.706 300.991C107.706 195.104 192.199 109.281 296.409 109.281C400.619 109.281 485.113 195.104 485.113 300.991Z" stroke="#7EDBC4" stroke-width="1.11049"/>
<path d="M539.112 301.008C539.112 437.073 430.537 547.36 296.621 547.36C162.705 547.36 54.1295 437.073 54.1295 301.008C54.1295 164.943 162.705 54.6553 296.621 54.6553C430.537 54.6553 539.112 164.943 539.112 301.008Z" stroke="#7EDBC4" stroke-width="1.11049"/>
<path d="M592.445 301.21C592.445 467.266 459.938 601.866 296.5 601.866C133.062 601.866 0.555243 467.266 0.555243 301.21C0.555243 135.155 133.062 0.555243 296.5 0.555243C459.938 0.555243 592.445 135.155 592.445 301.21Z" stroke="#7EDBC4" stroke-width="1.11049"/>
</svg>
