<svg width="194" height="66" viewBox="0 0 194 66" fill="none" xmlns="http://www.w3.org/2000/svg">
<g filter="url(#filter0_d)">
<rect x="5.27832" y="1" width="183.721" height="55.6731" rx="4.63943" fill="black"/>
<path fill-rule="evenodd" clip-rule="evenodd" d="M44.8986 33.4682C47.7138 31.9074 49.8638 30.7153 50.0594 30.6067C50.6428 30.2833 51.2541 29.4579 50.0594 28.7981C49.6755 28.5857 47.5832 27.4301 44.8952 25.9447L41.1982 29.7181L44.8986 33.4682Z" fill="#FFE300"/>
<path fill-rule="evenodd" clip-rule="evenodd" d="M41.1975 29.7181L29.373 41.7865C29.6401 41.8208 29.9613 41.7492 30.3307 41.5444C31.0955 41.1204 39.309 36.5665 44.898 33.4678L41.1975 29.7181V29.7181Z" fill="#FF4E54"/>
<path fill-rule="evenodd" clip-rule="evenodd" d="M41.1982 29.7181L44.8952 25.9447C44.8952 25.9447 31.154 18.3511 30.3313 17.8965C30.0151 17.7217 29.6704 17.6607 29.3652 17.7296L41.1982 29.7181Z" fill="#00F085"/>
<path fill-rule="evenodd" clip-rule="evenodd" d="M41.198 29.718L29.3649 17.7296C28.8761 17.84 28.4756 18.2685 28.4756 19.1297C28.4756 20.5287 28.4756 39.1734 28.4756 40.348C28.4756 41.159 28.7907 41.7295 29.3734 41.7863L41.198 29.718Z" fill="#00E0FF"/>
<path d="M80.3928 36.6895V42.3348C79.8584 42.602 79.207 42.8136 78.4387 42.9695C77.6815 43.1254 76.9077 43.2033 76.1171 43.2033C74.9035 43.2033 73.8512 42.9639 72.9605 42.4851C72.0697 41.9952 71.3849 41.2993 70.9061 40.3974C70.4385 39.4843 70.2046 38.4043 70.2046 37.1572C70.2046 35.9213 70.4385 34.8523 70.9061 33.9504C71.3849 33.0374 72.0586 32.3415 72.9271 31.8627C73.8067 31.3728 74.8366 31.1278 76.0169 31.1278C76.8409 31.1278 77.6147 31.2503 78.3385 31.4952C79.0622 31.7291 79.6635 32.0687 80.1423 32.5141L79.4241 34.0673C78.8785 33.6442 78.3385 33.3436 77.804 33.1654C77.2807 32.9761 76.7017 32.8815 76.067 32.8815C74.8533 32.8815 73.9347 33.2434 73.3112 33.9671C72.6988 34.6797 72.3926 35.7431 72.3926 37.1572C72.3926 40.0522 73.6619 41.4997 76.2006 41.4997C76.9578 41.4997 77.7149 41.3939 78.4721 41.1824V38.2261H75.9334V36.6895H80.3928ZM86.6961 43.1866C85.861 43.1866 85.1261 43.014 84.4915 42.6688C83.8679 42.3237 83.3836 41.8282 83.0384 41.1824C82.6932 40.5366 82.5206 39.785 82.5206 38.9276C82.5206 38.0702 82.6932 37.3242 83.0384 36.6895C83.3836 36.0437 83.8679 35.5482 84.4915 35.2031C85.1261 34.8579 85.861 34.6853 86.6961 34.6853C87.5312 34.6853 88.2605 34.8579 88.8841 35.2031C89.5187 35.5482 90.0031 36.0437 90.3371 36.6895C90.6823 37.3242 90.8549 38.0702 90.8549 38.9276C90.8549 39.785 90.6823 40.5366 90.3371 41.1824C90.0031 41.8282 89.5187 42.3237 88.8841 42.6688C88.2605 43.014 87.5312 43.1866 86.6961 43.1866ZM86.6794 41.5665C87.3586 41.5665 87.8764 41.3438 88.2327 40.8984C88.589 40.453 88.7671 39.7961 88.7671 38.9276C88.7671 38.0702 88.589 37.4189 88.2327 36.9735C87.8764 36.517 87.3642 36.2887 86.6961 36.2887C86.028 36.2887 85.5103 36.517 85.1428 36.9735C84.7865 37.4189 84.6084 38.0702 84.6084 38.9276C84.6084 39.7961 84.7865 40.453 85.1428 40.8984C85.4991 41.3438 86.0113 41.5665 86.6794 41.5665ZM96.637 43.1866C95.8019 43.1866 95.067 43.014 94.4324 42.6688C93.8088 42.3237 93.3245 41.8282 92.9793 41.1824C92.6341 40.5366 92.4615 39.785 92.4615 38.9276C92.4615 38.0702 92.6341 37.3242 92.9793 36.6895C93.3245 36.0437 93.8088 35.5482 94.4324 35.2031C95.067 34.8579 95.8019 34.6853 96.637 34.6853C97.4721 34.6853 98.2014 34.8579 98.825 35.2031C99.4597 35.5482 99.944 36.0437 100.278 36.6895C100.623 37.3242 100.796 38.0702 100.796 38.9276C100.796 39.785 100.623 40.5366 100.278 41.1824C99.944 41.8282 99.4597 42.3237 98.825 42.6688C98.2014 43.014 97.4721 43.1866 96.637 43.1866ZM96.6203 41.5665C97.2995 41.5665 97.8173 41.3438 98.1736 40.8984C98.5299 40.453 98.7081 39.7961 98.7081 38.9276C98.7081 38.0702 98.5299 37.4189 98.1736 36.9735C97.8173 36.517 97.3051 36.2887 96.637 36.2887C95.9689 36.2887 95.4512 36.517 95.0837 36.9735C94.7274 37.4189 94.5493 38.0702 94.5493 38.9276C94.5493 39.7961 94.7274 40.453 95.0837 40.8984C95.4401 41.3438 95.9522 41.5665 96.6203 41.5665ZM110.804 34.8857V42.3014C110.804 43.5819 110.447 44.5506 109.735 45.2075C109.033 45.8645 107.992 46.1929 106.611 46.1929C105.899 46.1929 105.214 46.0983 104.557 45.909C103.9 45.7309 103.327 45.4748 102.837 45.1407L103.421 43.671C104.435 44.2834 105.481 44.5896 106.561 44.5896C108.009 44.5896 108.732 43.8769 108.732 42.4517V41.3828C108.488 41.8393 108.131 42.1956 107.664 42.4517C107.196 42.6967 106.661 42.8192 106.06 42.8192C105.348 42.8192 104.713 42.6521 104.156 42.3181C103.611 41.9729 103.182 41.4941 102.87 40.8817C102.558 40.2693 102.402 39.5623 102.402 38.7606C102.402 37.9589 102.553 37.2518 102.853 36.6394C103.165 36.0159 103.599 35.5371 104.156 35.2031C104.713 34.8579 105.348 34.6853 106.06 34.6853C106.661 34.6853 107.196 34.8134 107.664 35.0695C108.131 35.3144 108.488 35.6652 108.732 36.1217V34.8857H110.804ZM106.611 41.1991C107.279 41.1991 107.797 40.9819 108.165 40.5477C108.543 40.1134 108.732 39.5177 108.732 38.7606C108.732 37.9923 108.543 37.391 108.165 36.9568C107.797 36.5225 107.279 36.3054 106.611 36.3054C105.954 36.3054 105.437 36.5225 105.058 36.9568C104.679 37.391 104.49 37.9923 104.49 38.7606C104.49 39.5066 104.679 40.1023 105.058 40.5477C105.437 40.9819 105.954 41.1991 106.611 41.1991ZM113.3 31.2781H115.388V43.053H113.3V31.2781ZM125.04 39.3451H119.478C119.545 40.1023 119.773 40.6646 120.163 41.032C120.553 41.3995 121.109 41.5832 121.833 41.5832C122.735 41.5832 123.559 41.2937 124.305 40.7147L124.906 42.1511C124.528 42.4628 124.049 42.7134 123.47 42.9027C122.902 43.0919 122.329 43.1866 121.75 43.1866C120.413 43.1866 119.356 42.808 118.576 42.0509C117.808 41.2937 117.424 40.2582 117.424 38.9443C117.424 38.1092 117.591 37.3688 117.925 36.7229C118.259 36.0771 118.727 35.5761 119.328 35.2198C119.94 34.8635 120.631 34.6853 121.399 34.6853C122.523 34.6853 123.409 35.0472 124.054 35.7709C124.711 36.4947 125.04 37.4912 125.04 38.7606V39.3451ZM121.449 36.1551C120.892 36.1551 120.441 36.3332 120.096 36.6895C119.762 37.0458 119.556 37.558 119.478 38.2261H123.253C123.23 37.5469 123.063 37.0347 122.752 36.6895C122.44 36.3332 122.006 36.1551 121.449 36.1551ZM132.134 31.2781H137.278C138.536 31.2781 139.516 31.5954 140.217 32.2301C140.919 32.8537 141.27 33.7333 141.27 34.869C141.27 36.0048 140.919 36.89 140.217 37.5246C139.516 38.1593 138.536 38.4766 137.278 38.4766H134.288V43.053H132.134V31.2781ZM137.011 36.8232C138.492 36.8232 139.232 36.1773 139.232 34.8857C139.232 34.2288 139.048 33.7444 138.681 33.4327C138.313 33.1098 137.757 32.9483 137.011 32.9483H134.288V36.8232H137.011ZM143.31 31.2781H145.398V43.053H143.31V31.2781ZM151.392 34.6853C152.539 34.6853 153.391 34.9637 153.948 35.5204C154.504 36.0771 154.783 36.9345 154.783 38.0925V43.053H152.795V41.8003C152.606 42.2346 152.305 42.5742 151.893 42.8192C151.492 43.0641 151.025 43.1866 150.49 43.1866C149.945 43.1866 149.449 43.0752 149.004 42.8526C148.558 42.6299 148.208 42.3237 147.952 41.9339C147.695 41.5442 147.567 41.11 147.567 40.6312C147.567 40.0299 147.718 39.5567 148.018 39.2115C148.33 38.8664 148.831 38.6158 149.521 38.4599C150.212 38.3041 151.164 38.2261 152.378 38.2261H152.795V37.842C152.795 37.2852 152.673 36.8844 152.428 36.6394C152.194 36.3945 151.799 36.272 151.242 36.272C150.808 36.272 150.351 36.3499 149.872 36.5058C149.405 36.6506 148.942 36.8566 148.486 37.1238L147.901 35.6874C148.358 35.3979 148.909 35.1585 149.555 34.9692C150.201 34.78 150.813 34.6853 151.392 34.6853ZM150.908 41.6834C151.464 41.6834 151.915 41.4997 152.261 41.1323C152.617 40.7537 152.795 40.2693 152.795 39.6792V39.3284H152.494C151.748 39.3284 151.169 39.3618 150.757 39.4287C150.345 39.4955 150.05 39.6124 149.872 39.7794C149.694 39.9464 149.605 40.1747 149.605 40.4642C149.605 40.8205 149.727 41.1156 149.972 41.3494C150.217 41.5721 150.529 41.6834 150.908 41.6834ZM165.022 34.9024L160.111 46.0593H158.007L159.493 42.7356L156.086 34.9024H158.291L160.596 40.6646L162.967 34.9024H165.022Z" fill="white"/>
<path d="M77.6815 16.6556V20.8905C77.3178 21.081 76.8415 21.2369 76.2526 21.3581C75.6724 21.4707 75.0835 21.527 74.4859 21.527C73.5766 21.527 72.7928 21.3408 72.1346 20.9684C71.4765 20.596 70.9698 20.0591 70.6148 19.3576C70.2684 18.6561 70.0951 17.8161 70.0951 16.8375C70.0951 15.8675 70.2684 15.0318 70.6148 14.3303C70.9612 13.6289 71.4591 13.0919 72.1087 12.7195C72.7582 12.3471 73.5246 12.1609 74.408 12.1609C75.0488 12.1609 75.6377 12.2605 76.1747 12.4597C76.7116 12.6502 77.1706 12.936 77.5516 13.3171L77.1489 14.1355C76.7073 13.7544 76.2699 13.4816 75.8369 13.3171C75.4126 13.1525 74.9362 13.0703 74.408 13.0703C73.3774 13.0703 72.585 13.395 72.0307 14.0446C71.4765 14.6941 71.1993 15.625 71.1993 16.8375C71.1993 18.0759 71.4808 19.0199 72.0437 19.6694C72.6066 20.3103 73.4294 20.6307 74.5119 20.6307C75.3 20.6307 76.0318 20.5138 76.7073 20.2799V17.487H74.4339V16.6556H77.6815ZM85.2372 18.4223H80.6126C80.6472 19.1584 80.8464 19.717 81.2102 20.0981C81.5739 20.4705 82.0892 20.6567 82.756 20.6567C83.4921 20.6567 84.1676 20.4055 84.7825 19.9032L85.1333 20.6697C84.8561 20.9295 84.5011 21.1373 84.068 21.2932C83.635 21.4404 83.1934 21.514 82.743 21.514C81.7558 21.514 80.9763 21.2239 80.4048 20.6437C79.8418 20.0634 79.5604 19.2624 79.5604 18.2404C79.5604 17.5909 79.686 17.0194 79.9371 16.5257C80.1882 16.0234 80.539 15.6337 80.9893 15.3566C81.4483 15.0795 81.9679 14.9409 82.5482 14.9409C83.3882 14.9409 84.0464 15.218 84.5227 15.7723C84.999 16.3179 85.2372 17.0713 85.2372 18.0326V18.4223ZM82.5612 15.7593C82.0069 15.7593 81.5609 15.9325 81.2231 16.2789C80.8941 16.6253 80.6992 17.1146 80.6386 17.7468H84.3149C84.2975 17.106 84.1373 16.6166 83.8342 16.2789C83.5311 15.9325 83.1068 15.7593 82.5612 15.7593ZM89.7892 20.6697C89.9797 20.6697 90.1702 20.6567 90.3608 20.6307L90.3088 21.4621C90.1096 21.4967 89.8931 21.514 89.6593 21.514C88.8972 21.514 88.3213 21.3148 87.9316 20.9165C87.5505 20.5181 87.36 19.9638 87.36 19.2537V15.9282H86.1259V15.0968H87.36V13.1742H88.4122V15.0968H90.2049V15.9282H88.4122V19.1758C88.4122 20.1717 88.8712 20.6697 89.7892 20.6697ZM95.2927 15.0968H96.3449V21.4231H95.2927V15.0968ZM96.4618 12.3558V13.5379H95.1887V12.3558H96.4618ZM101.352 20.6697C101.542 20.6697 101.733 20.6567 101.923 20.6307L101.871 21.4621C101.672 21.4967 101.456 21.514 101.222 21.514C100.46 21.514 99.8837 21.3148 99.494 20.9165C99.113 20.5181 98.9225 19.9638 98.9225 19.2537V15.9282H97.6884V15.0968H98.9225V13.1742H99.9747V15.0968H101.767V15.9282H99.9747V19.1758C99.9747 20.1717 100.434 20.6697 101.352 20.6697ZM109.479 21.514C108.882 21.514 108.353 21.3798 107.894 21.1113C107.444 20.8429 107.093 20.4618 106.842 19.9682C106.6 19.4659 106.478 18.8856 106.478 18.2275C106.478 17.5693 106.6 16.9934 106.842 16.4997C107.093 15.9974 107.444 15.6121 107.894 15.3436C108.353 15.0751 108.882 14.9409 109.479 14.9409C110.077 14.9409 110.605 15.0751 111.064 15.3436C111.523 15.6121 111.874 15.9974 112.116 16.4997C112.367 16.9934 112.493 17.5693 112.493 18.2275C112.493 18.8856 112.367 19.4659 112.116 19.9682C111.874 20.4618 111.523 20.8429 111.064 21.1113C110.605 21.3798 110.077 21.514 109.479 21.514ZM109.479 20.6437C110.103 20.6437 110.579 20.4402 110.908 20.0331C111.246 19.6174 111.415 19.0155 111.415 18.2275C111.415 17.4567 111.246 16.8635 110.908 16.4478C110.57 16.0234 110.094 15.8112 109.479 15.8112C108.864 15.8112 108.388 16.0234 108.05 16.4478C107.712 16.8635 107.544 17.4567 107.544 18.2275C107.544 19.0069 107.708 19.6044 108.037 20.0201C108.375 20.4358 108.856 20.6437 109.479 20.6437ZM117.503 14.9409C119.019 14.9409 119.777 15.7766 119.777 17.448V21.4231H118.724V17.513C118.724 16.9241 118.607 16.4954 118.374 16.2269C118.148 15.9585 117.785 15.8242 117.282 15.8242C116.702 15.8242 116.239 16.0018 115.892 16.3568C115.546 16.7119 115.373 17.1926 115.373 17.7988V21.4231H114.321V15.0968H115.36V16.136C115.568 15.7463 115.858 15.4518 116.23 15.2527C116.603 15.0448 117.027 14.9409 117.503 14.9409Z" fill="white"/>
</g>
<defs>
<filter id="filter0_d" x="0.638893" y="0.0721147" width="193" height="64.952" filterUnits="userSpaceOnUse" color-interpolation-filters="sRGB">
<feFlood flood-opacity="0" result="BackgroundImageFix"/>
<feColorMatrix in="SourceAlpha" type="matrix" values="0 0 0 0 0 0 0 0 0 0 0 0 0 0 0 0 0 0 127 0"/>
<feOffset dy="3.71154"/>
<feGaussianBlur stdDeviation="2.31971"/>
<feColorMatrix type="matrix" values="0 0 0 0 0 0 0 0 0 0 0 0 0 0 0 0 0 0 0.2 0"/>
<feBlend mode="normal" in2="BackgroundImageFix" result="effect1_dropShadow"/>
<feBlend mode="normal" in="SourceGraphic" in2="effect1_dropShadow" result="shape"/>
</filter>
</defs>
</svg>
